<svg width="214" height="37" viewBox="0 0 214 37" fill="none" xmlns="http://www.w3.org/2000/svg">
<path d="M210.565 2.34496H181.296V9.74072H210.565V2.34496Z" fill="#007BD1"/>
<path d="M199.671 14.4137V33.0134H192.191V10.9068L199.671 14.4137Z" fill="#007BD1"/>
<path d="M63.5967 25.0544L57.5953 25.8087L57.5681 25.8752L55.5987 30.8086L55.2594 31.6534L54.8 32.804L52.8448 32.8379L46.7046 32.9455L47.373 31.2685L47.5433 30.8411L51.9617 19.8069L52.0462 19.5946L56.3615 9.31616L58.487 10.42L57.6569 12.5428L54.5824 20.39L63.5967 25.0544Z" fill="#007BD1"/>
<path d="M77.6391 33.0134L73.9135 32.9455L69.5394 32.8677L62.5433 15.8119L59.1353 7.50756L57.996 4.73804L57.0142 2.34496H65.4144L77.2126 31.9407L77.6391 33.0134Z" fill="#007BD1"/>
<path d="M152.771 25.0544L146.768 25.8087L146.742 25.8752L144.771 30.8086L144.433 31.6534L143.974 32.804L142.017 32.8379L135.877 32.9455L136.545 31.2685L136.717 30.8411L141.134 19.8069L141.22 19.5946L145.534 9.31616L147.661 10.42L146.831 12.5428L143.755 20.39L152.771 25.0544Z" fill="#007BD1"/>
<path d="M166.812 33.0134L163.087 32.9455L158.713 32.8677L151.716 15.8119L148.309 7.50756L147.168 4.73804L146.188 2.34496H154.587L166.385 31.9407L166.812 33.0134Z" fill="#007BD1"/>
<path d="M110.381 17.6771V17.6785C110.381 19.6527 108.761 21.2532 106.764 21.2532C104.768 21.2532 103.147 19.6527 103.147 17.6785V17.6771C103.147 16.7091 103.537 15.8331 104.169 15.1906C104.826 14.5184 105.748 14.1023 106.766 14.1023C107.783 14.1023 108.704 14.5184 109.362 15.1906C109.992 15.8345 110.381 16.7091 110.381 17.6771Z" fill="#007BD1"/>
<path d="M119.389 8.83217L115.289 12.8867C114.864 12.1479 114.333 11.4545 113.696 10.8247C113.059 10.195 112.357 9.66996 111.61 9.24965L115.711 5.19514C116.411 5.6848 117.076 6.24097 117.705 6.86082C118.332 7.48208 118.894 8.14014 119.389 8.83217Z" fill="#FFB400"/>
<path d="M109.363 8.32978C108.463 8.08778 107.536 7.97174 106.61 7.9873C105.784 8.00004 104.961 8.11326 104.161 8.33119V2.59545C105.007 2.4511 105.874 2.37893 106.761 2.37893C107.649 2.37893 108.518 2.45252 109.363 2.59404V8.32978Z" fill="#FFB400"/>
<path d="M122.013 20.2499H116.221C116.438 19.4602 116.553 18.6465 116.566 17.8313C116.581 16.9157 116.465 15.9958 116.218 15.1057L122.013 15.1071C122.158 15.9421 122.231 16.8011 122.231 17.6785C122.231 18.5559 122.156 19.4135 122.013 20.2499Z" fill="#FFB400"/>
<path d="M101.915 9.24824C101.105 9.70534 100.368 10.2728 99.7235 10.9309C99.1481 11.5182 98.6486 12.1734 98.2378 12.8853L94.1357 8.83076C94.631 8.13732 95.192 7.47926 95.8189 6.85941C96.4459 6.23955 97.1143 5.68339 97.8127 5.19373L101.915 9.24824Z" fill="#FFB400"/>
<path d="M97.3047 15.1071C97.0586 15.9973 96.9426 16.9143 96.9584 17.8299C96.9712 18.6465 97.0857 19.4602 97.3062 20.2513H91.5051C91.3591 19.4149 91.2861 18.5573 91.2861 17.6799C91.2861 16.8025 91.3606 15.9435 91.5037 15.1071H97.3047Z" fill="#FFB400"/>
<path d="M121.598 32.2733L120.808 32.228L112.102 31.9874L110.562 32.5153C109.335 32.8252 108.085 32.9795 106.761 32.9795C105.688 32.9795 104.639 32.8705 103.627 32.6653C100.919 32.1134 98.4699 30.8652 96.479 29.1132C96.4633 29.0976 96.4461 29.0835 96.4303 29.0679C95.8049 28.516 95.2223 27.9103 94.6827 27.2437C94.1274 26.5559 93.6422 25.8413 93.2257 25.0997L93.2314 25.0941C93.1312 24.9129 93.0339 24.7289 92.938 24.545L97.6097 21.1471C97.9446 22.0061 98.4027 22.8142 98.9637 23.5416C99.4633 24.1926 100.04 24.7785 100.69 25.2908C100.793 25.3728 100.895 25.4507 101.003 25.5285C102.619 26.689 104.612 27.3767 106.761 27.3767C109.086 27.3767 111.22 26.5772 112.9 25.2426L112.897 25.2398C113.623 24.661 114.264 23.9888 114.791 23.2345C115.263 22.5651 115.654 21.842 115.947 21.0721L115.953 21.0778L120.646 24.4332C120.269 25.1931 119.821 25.9318 119.298 26.6437C119.109 26.9027 118.915 27.156 118.71 27.4008C118.697 27.4164 118.686 27.4305 118.673 27.4461C118.618 27.5126 118.56 27.5791 118.502 27.6456C118.213 27.9796 117.911 28.2966 117.596 28.6009C117.583 28.6136 117.572 28.6278 117.556 28.6405L121.598 32.2733Z" fill="#007BD1"/>
<path d="M32.2183 2.34496H2.94971V9.74072H32.2183V2.34496Z" fill="#007BD1"/>
<path d="M21.3247 14.4137V33.0134H13.8447V10.9068L21.3247 14.4137Z" fill="#007BD1"/>
</svg>
